# AST/ASF file generated using VICON BodyLanguage
# -----------------------------------------------
:version 1.10
:name VICON
:units
  mass 1.0
  length 0.45
  angle deg
:documentation
   .ast/.asf automatically generated from VICON data using
   VICON BodyBuilder and BodyLanguage model FoxedUp or BRILLIANT.MOD
:root
   order TX TY TZ RX RY RZ
   axis XYZ
   position 0 0 0  
   orientation 0 0 0 
:bonedata
  begin
     id 1 
     name lhipjoint
     direction 0.575328 -0.747301 0.332475 
     length 2.40933 
     axis 0 0 0  XYZ
  end
  begin
     id 2 
     name lfemur
     direction 0.34202 -0.939693 0  
     length 7.31453  
     axis 0 0 20  XYZ
    dof rx ry rz
    limits (-160.0 20.0)
           (-70.0 70.0)
           (-60.0 70.0)
  end
  begin
     id 3 
     name ltibia
     direction 0.34202 -0.939693 0   
     length 7.82185   
     axis 0 0 20   XYZ
    dof rx
    limits (-10.0 170.0)
  end
  begin
     id 4 
     name lfoot
     direction 0.0795993 -0.218697 0.972541   
     length 2.19173   
     axis -90 7.62852e-016 20   XYZ
    dof rx rz
    limits (-45.0 90.0)
           (-70.0 20.0)
  end
  begin
     id 5 
     name ltoes
     direction 1.53537e-011 -4.21894e-011 1   
     length 1.10023   
     axis -90 7.62852e-016 20   XYZ
    dof rx
    limits (-90.0 20.0)
  end
  begin
     id 6 
     name rhipjoint
     direction -0.513884 -0.783789 0.348708   
     length 2.29716  
     axis 0 0 0  XYZ 
  end
  begin
     id 7 
     name rfemur
     direction -0.34202 -0.939693 0   
     length 7.59573   
     axis 0 0 -20   XYZ
    dof rx ry rz
    limits (-160.0 20.0)
           (-70.0 70.0)
           (-70.0 60.0)
  end
  begin
     id 8 
     name rtibia
     direction -0.34202 -0.939693 0   
     length 7.66402   
     axis 0 0 -20   XYZ
    dof rx
    limits (-10.0 170.0)
 end
 begin
     id 9 
     name rfoot
     direction -0.137793 -0.378584 0.915253   
     length 2.27056  
     axis -90 -7.62852e-016 -20   XYZ
    dof rx rz
    limits (-45.0 90.0)
           (-20.0 70.0)
  end
  begin
     id 10 
     name rtoes
     direction -1.53493e-011 -4.22159e-011 1   
     length 1.11766   
     axis -90 -7.62852e-016 -20   XYZ
    dof rx
    limits (-90.0 20.0)
  end
  begin
     id 11 
     name lowerback
     direction -0.00732775 0.998356 -0.05685   
     length 2.16513   
     axis 0 0 0   XYZ
    dof rx ry rz
    limits (-20.0 45.0)
           (-30.0 30.0)
           (-30.0 30.0)
  end
  begin
     id 12 
     name upperback
     direction 0.0218081 0.999627 -0.0164647   
     length 2.16755   
     axis 0 0 0   XYZ
    dof rx ry rz
    limits (-20.0 45.0)
           (-30.0 30.0)
           (-30.0 30.0)
  end
  begin
     id 13 
     name thorax
     direction 0.02365 0.999661 0.0108914   
     length 2.16932   
     axis 0 0 0   XYZ
    dof rx ry rz
    limits (-20.0 45.0)
           (-30.0 30.0)
           (-30.0 30.0)
  end
  begin
     id 14 
     name lowerneck
     direction -0.0523929 0.978385 0.200044   
     length 1.63877   
     axis 0 0 0   XYZ
    dof rx ry rz
    limits (-20.0 45.0)
           (-30.0 30.0)
           (-30.0 30.0)
  end
  begin
     id 15 
     name upperneck
     direction 0.0448674 0.981321 -0.187074   
     length 1.69014   
     axis 0 0 0   XYZ
    dof rx ry rz
    limits (-20.0 45.0)
           (-30.0 30.0)
           (-30.0 30.0)
  end
  begin
     id 16
     name head
     direction 0.0199089 0.996118 -0.0857429  
     length 1.70094  
     axis 0 0 0   XYZ
    dof rx ry rz
    limits (-20.0 45.0)
           (-30.0 30.0)
           (-30.0 30.0)
  end
  begin
     id 17 
     name lclavicle
     direction 0.940366 0.30191 -0.156722  
     length 3.37521  
     axis 0 0 0   XYZ
    dof ry rz
    limits (-20.0 10.0)
           (0.0 20.0)
  end
  begin
     id 18 
     name lhumerus
     direction 1 -4.4897e-011 -1.7911e-027   
     length 5.25287   
     axis 180 -30 -90   XYZ
    dof rx ry rz
    limits (-60.0 90.0)
           (-90.0 90.0)
           (-90.0 90.0)
  end
  begin
     id 19
     name lradius
     direction 1 -4.48951e-011 1.04424e-027   
     length 3.51014   
     axis 180 -30 -90   XYZ
    dof rx
    limits (-10.0 170.0)
  end
  begin
     id 20
     name lwrist
     direction 1 -4.48997e-011 -9.5942e-028   
     length 1.75507   
     axis 8.48502e-016 90 90   XYZ
    dof ry
    limits (-180.0 0.0)
 end
  begin
     id 21 
     name lhand
     direction 1 -4.48831e-011 -1.90777e-027   
     length 0.706179   
     axis 1.22306e-015 90 90   XYZ
    dof rx rz
    limits (-90.0 90.0)
           (-45.0 45.0)
  end
  begin
     id 22 
     name lfingers
     direction 1 -4.49108e-011 -3.85244e-027   
     length 0.569339   
     axis 2.44611e-015 90 90   XYZ
    dof rx
    limits (0.0 90.0)
  end
  begin
     id 23
     name lthumb
     direction 0.707107 -6.34953e-011 0.707107   
     length 0.817461   
     axis -90 45 -1.62303e-014   XYZ
    dof rx rz
    limits (-45.0 45.0)
           (-45.0 45.0)
  end
  begin
     id 24 
     name rclavicle
     direction -0.905329 0.382405 -0.184787   
     length 3.30787  
     axis 0 0 0   XYZ 
    dof ry rz
    limits (-10.0 20.0)
           (-20.0 0.0)
  end
  begin
     id 25 
     name rhumerus
     direction -1 -4.48953e-011 -9.15316e-029  
     length 5.28721   
     axis 180 30 90   XYZ
    dof rx ry rz
    limits (-90.0 60.0)
           (-90.0 90.0)
           (-90.0 90.0)
  end
  begin
     id 26 
     name rradius
     direction -1 -4.48987e-011 9.37824e-028   
     length 3.50544   
     axis 180 30 90   XYZ
    dof rx
    limits (-10.0 170.0)
  end
  begin
     id 27 
     name rwrist
     direction -1 -4.48967e-011 -9.58414e-028   
     length 1.75272   
     axis 8.48502e-016 -90 -90   XYZ
    dof ry
    limits (-180.0 0.0)
  end
  begin
     id 28
     name rhand
     direction -1 -4.48904e-011 -1.91266e-027   
     length 0.884996   
     axis 1.22306e-015 -90 -90   XYZ
    dof rx rz
    limits (-90.0 90.0)
           (-45.0 45.0)
  end
  begin
     id 29
     name rfingers
     direction -1 -4.4909e-011 -3.85015e-027   
     length 0.713507   
     axis 2.44611e-015 -90 -90   XYZ
    dof rx
    limits (0.0 90.0)
  end
  begin
     id 30
     name rthumb
     direction -0.707107 -6.34853e-011 0.707107   
     length 1.02446   
     axis -90 -45 1.62303e-014   XYZ
    dof rx rz
    limits (-45.0 45.0)
           (-45.0 45.0)
  end
:hierarchy
  begin
    root lhipjoint rhipjoint lowerback
    lhipjoint lfemur
    lfemur ltibia
    ltibia lfoot
    lfoot ltoes
    rhipjoint rfemur
    rfemur rtibia
    rtibia rfoot
    rfoot rtoes
    lowerback upperback
    upperback thorax
    thorax lowerneck lclavicle rclavicle
    lowerneck upperneck
    upperneck head
    lclavicle lhumerus
    lhumerus lradius
    lradius lwrist
    lwrist lhand lthumb
    lhand lfingers
    rclavicle rhumerus
    rhumerus rradius
    rradius rwrist
    rwrist rhand rthumb
    rhand rfingers
  end

#!OML:ASF F:\twosubjects\two\Thursday\Session 1\justin.ASF
:FULLY-SPECIFIED
:DEGREES
126
root 9.64145 18.1993 8.17953 -175.836 5.0039 -178.603
lowerback -5.81299 0.412448 -5.59303
upperback 3.17036 0.921624 5.30274
thorax 6.46337 0.16092 8.95685
lowerneck -14.1794 -5.5324 -11.1373
upperneck 31.4059 -4.8048 6.48649
head 13.4366 -1.81677 3.91963
rclavicle 5.76476e-015 1.27222e-014
rhumerus -24.154 -2.95661 -80.2377
rradius 42.5283
rwrist -14.2866
rhand -14.7076 14.1131
rfingers 7.12502
rthumb 11.4467 -15.5545
lclavicle 5.76476e-015 1.27222e-014
lhumerus -32.8612 2.48338 93.3409
lradius 41.8203
lwrist 0.52463
lhand -3.68675 36.0286
lfingers 7.12502
lthumb 22.0547 64.791
rfemur -16.1604 -0.987402 25.0585
rtibia 33.9159
rfoot -21.0253 -6.67016
rtoes 4.76361
lfemur -11.6877 12.7275 -12.3953
ltibia 44.5094
lfoot -5.67218 -9.66222
ltoes -22.2911
127
root 9.64507 18.1824 8.20881 -175.903 5.27512 -178.993
lowerback -5.74529 0.496323 -6.11265
upperback 3.18891 1.06968 5.28679
thorax 6.41195 0.209838 9.25928
lowerneck -14.8213 -5.61223 -10.8226
upperneck 31.6911 -4.87065 6.20699
head 13.6874 -1.84323 3.74703
rclavicle -1.07344e-014 -3.33958e-014
rhumerus -23.9118 -2.68385 -80.1219
rradius 42.5337
rwrist -14.212
rhand -14.5636 14.5934
rfingers 7.12502
rthumb 11.5856 -15.0663
lclavicle -1.07344e-014 -3.33958e-014
lhumerus -32.6659 1.49131 93.8575
lradius 41.6266
lwrist 0.299107
lhand -3.51592 35.9245
lfingers 7.12502
lthumb 22.2187 64.6674
rfemur -16.5822 -0.938827 24.6414
rtibia 34.5738
rfoot -21.3137 -6.58334
rtoes 5.10028
lfemur -11.6244 13.0283 -12.8634
ltibia 44.4654
lfoot -6.26505 -9.37464
ltoes -21.5884
128
root 9.64742 18.1643 8.23636 -176.081 5.73106 -179.272
lowerback -5.56031 0.486236 -6.59063
upperback 3.19815 1.08514 5.41636
thorax 6.30879 0.19915 9.68208
lowerneck -15.2052 -5.57167 -11.0126
upperneck 31.8079 -4.71504 6.14321
head 13.8121 -1.81234 3.78023
rclavicle 3.37934e-015 8.90555e-014
rhumerus -23.7712 -1.77565 -80.0105
rradius 42.5905
rwrist -14.2658
rhand -14.7357 14.5629
rfingers 7.12502
rthumb 11.4197 -15.1061
lclavicle 3.37934e-015 8.90555e-014
lhumerus -32.6014 0.937627 94.4188
lradius 41.338
lwrist 0.247605
lhand -4.00372 36.0924
lfingers 7.12502
lthumb 21.7504 64.8904
rfemur -16.8107 -0.768118 24.3219
rtibia 35.1371
rfoot -21.428 -6.48585
rtoes 4.97985
lfemur -11.3149 13.4272 -13.2048
ltibia 44.3559
lfoot -7.11808 -8.97542
ltoes -21.3149
129
root 9.65156 18.1401 8.26708 -176.317 6.20632 -179.127
lowerback -5.31339 0.397865 -6.71939
upperback 3.2324 0.97434 5.7699
thorax 6.22652 0.14398 10.1378
lowerneck -15.2455 -5.49973 -11.5323
upperneck 31.6161 -4.47753 6.09757
head 13.7312 -1.794 3.87904
rclavicle -1.0138e-014 -1.27222e-014
rhumerus -23.5475 -0.509488 -79.8226
rradius 42.4416
rwrist -14.2296
rhand -14.9407 14.2037
rfingers 7.12502
rthumb 11.2219 -15.4761
lclavicle -1.0138e-014 -1.27222e-014
lhumerus -32.5987 0.655523 95.1232
lradius 41.0193
lwrist 0.464862
lhand -4.8752 35.7083
lfingers 7.12502
lthumb 20.9133 64.6009
rfemur -16.8874 -0.642339 24.4849
rtibia 35.6187
rfoot -21.3574 -6.39078
rtoes 5.04617
lfemur -10.8311 13.8221 -13.0283
ltibia 44.098
lfoot -8.05381 -8.56797
ltoes -20.9565
130
root 9.65662 18.1198 8.29063 -176.507 6.55952 -178.836
lowerback -5.09442 0.344848 -6.81469
upperback 3.20567 0.913015 6.1743
thorax 6.08539 0.121456 10.6381
lowerneck -15.3236 -5.48707 -11.7959
upperneck 31.5594 -4.33562 5.92749
head 13.7154 -1.79381 3.87371
rclavicle -3.18055e-015 2.54444e-014
rhumerus -23.5505 0.669804 -79.5127
rradius 42.2867
rwrist -14.3498
rhand -15.4467 13.5738
rfingers 7.12502
rthumb 10.7339 -16.132
lclavicle -3.18055e-015 2.54444e-014
lhumerus -32.6592 0.160637 95.9007
lradius 40.6811
lwrist 0.626487
lhand -4.5716 36.0098
lfingers 7.12502
lthumb 21.205 64.87
rfemur -16.9637 -0.786065 24.8099
rtibia 36.098
rfoot -21.5279 -6.18013
rtoes 5.40978
lfemur -10.2546 14.0622 -12.6875
ltibia 43.6432
lfoot -8.86808 -8.14857
ltoes -20.1801
131
root 9.65782 18.1074 8.31047 -176.656 6.75396 -179.147
lowerback -4.94714 0.283146 -7.49285
upperback 3.10395 0.868633 6.35541
thorax 5.90136 0.0804098 11.24
lowerneck -15.4208 -5.46221 -11.7793
upperneck 31.5037 -4.24094 5.70755
head 13.6966 -1.78491 3.79235
rclavicle 4.37326e-015 -2.70347e-014
rhumerus -23.7047 1.60486 -79.2683
rradius 42.1662
rwrist -14.4179
rhand -15.4285 13.3512
rfingers 7.12502
rthumb 10.7514 -16.3537
lclavicle 4.37326e-015 -2.70347e-014
lhumerus -32.7266 -0.262679 96.5069
lradius 40.2436
lwrist 0.163306
lhand -2.42714 37.1028
lfingers 7.12502
lthumb 23.2637 65.7175
rfemur -17.1575 -1.1157 24.4548
rtibia 36.5933
rfoot -21.998 -5.9907
rtoes 4.98757
lfemur -9.69362 13.9671 -13.1089
ltibia 42.9903
lfoot -9.3705 -7.47324
ltoes -19.4386
132
root 9.65432 18.0921 8.34028 -176.735 6.89075 -179.542
lowerback -4.94634 0.278058 -8.03309
upperback 3.15497 0.897166 6.39174
thorax 5.94911 0.0632251 11.6143
lowerneck -15.6754 -5.47233 -11.6902
upperneck 31.2694 -4.28077 5.59581
head 13.6475 -1.82306 3.70964
rclavicle -1.78906e-014 -4.13472e-014
rhumerus -23.4024 1.88634 -79.148
rradius 41.8439
rwrist -14.1858
rhand -15.2211 13.5551
rfingers 7.12502
rthumb 10.9515 -16.1393
lclavicle -1.78906e-014 -4.13472e-014
lhumerus -32.4797 -0.704001 96.9317
lradius 39.7432
lwrist -0.747919
lhand -1.69041 36.6638
lfingers 7.12502
lthumb 23.9703 65.1873
rfemur -17.4742 -1.30481 24.0049
rtibia 37.0781
rfoot -22.5282 -5.96433
rtoes 4.24049
lfemur -9.1935 13.715 -13.7233
ltibia 42.2005
lfoot -10.0336 -6.504
ltoes -18.8783
133
root 9.64869 18.0697 8.37257 -176.626 7.12825 -179.509
lowerback -5.18267 0.245896 -8.07156
upperback 3.28226 0.878795 6.55102
thorax 6.22926 0.0311438 11.8359
lowerneck -16.0441 -5.40478 -11.5822
upperneck 31.0322 -4.16335 5.35121
head 13.6015 -1.81107 3.5949
rclavicle 1.37161e-014 8.5875e-014
rhumerus -22.7836 2.00922 -79.0034
rradius 41.2313
rwrist -13.837
rhand -15.4822 13.2323
rfingers 7.12502
rthumb 10.6996 -16.4752
lclavicle 1.37161e-014 8.5875e-014
lhumerus -32.023 -1.24311 97.4497
lradius 39.0634
lwrist -0.957501
lhand -3.6643 35.055
lfingers 7.12502
lthumb 22.0763 63.8149
rfemur -17.9565 -1.32489 24.0187
rtibia 37.5385
rfoot -22.8411 -5.86506
rtoes 4.32384
lfemur -8.81104 13.6136 -13.9276
ltibia 41.3694
lfoot -10.9996 -5.48265
ltoes -18.7684
134
root 9.64734 18.0483 8.40004 -176.401 7.15493 -179.475
lowerback -5.44859 0.068649 -8.163
upperback 3.27492 0.665495 6.73612
thorax 6.43404 -0.0929199 12.0975
lowerneck -16.3241 -5.30127 -11.4385
upperneck 30.8581 -3.9521 4.96948
head 13.5512 -1.76754 3.43917
rclavicle 2.16675e-014 -2.54444e-014
rhumerus -22.2602 2.21465 -78.8655
rradius 40.3886
rwrist -13.3055
rhand -15.0675 13.2431
rfingers 7.12502
rthumb 11.0996 -16.4434
lclavicle 2.16675e-014 -2.54444e-014
lhumerus -31.4982 -1.79929 97.962
lradius 38.0883
lwrist -0.3833
lhand -4.41722 33.711
lfingers 7.12502
lthumb 21.3533 62.5545
rfemur -18.4869 -1.47029 24.042
rtibia 37.9404
rfoot -23.0473 -5.8111
rtoes 4.35062
lfemur -8.58809 13.2951 -14.1501
ltibia 40.5409
lfoot -11.8407 -4.66232
ltoes -18.8974
135
root 9.65079 18.0326 8.42939 -176.052 6.96673 -179.413
lowerback -5.68616 -0.264757 -8.37581
upperback 3.09559 0.246184 7.00463
thorax 6.49729 -0.311229 12.5012
lowerneck -16.3926 -5.19137 -11.4924
upperneck 30.7178 -3.6984 4.66732
head 13.4767 -1.71216 3.36141
rclavicle 9.34288e-015 -6.99722e-014
rhumerus -21.965 2.96943 -78.7545
rradius 39.6797
rwrist -12.9797
rhand -14.2988 14.1567
rfingers 7.12502
rthumb 11.841 -15.4885
lclavicle 9.34288e-015 -6.99722e-014
lhumerus -31.2154 -1.68243 98.2831
lradius 37.3146
lwrist -0.919465
lhand -5.35396 31.3021
lfingers 7.12502
lthumb 20.4533 60.2448
rfemur -19.0937 -1.7995 24.1294
rtibia 38.2435
rfoot -23.2796 -5.87608
rtoes 3.59713
lfemur -8.56134 12.7487 -14.3778
ltibia 39.7286
lfoot -12.6784 -3.86374
ltoes -19.2829
136
root 9.65294 18.0252 8.45851 -175.714 6.95517 -179.407
lowerback -5.8811 -0.429729 -8.64246
upperback 2.98819 0.0589828 7.23606
thorax 6.5547 -0.418 12.9214
lowerneck -16.8065 -5.18857 -11.5568
upperneck 30.7988 -3.5789 4.46537
head 13.5884 -1.70265 3.30894
rclavicle -8.94531e-015 -6.36111e-014
rhumerus -21.5956 3.28529 -78.5304
rradius 39.0411
rwrist -12.7222
rhand -14.2005 14.9496
rfingers 7.12502
rthumb 11.9358 -14.6901
lclavicle -8.94531e-015 -6.36111e-014
lhumerus -31.0059 -1.66763 98.5935
lradius 36.827
lwrist -2.43512
lhand -7.96887 29.1622
lfingers 7.12502
lthumb 17.9388 58.3549
rfemur -19.6993 -2.17391 24.1642
rtibia 38.4557
rfoot -23.4152 -5.77455
rtoes 2.96642
lfemur -8.47374 12.2855 -14.708
ltibia 38.921
lfoot -13.8015 -2.62277
ltoes -19.4549
137
root 9.65398 18.0214 8.48252 -175.568 7.10405 -179.343
lowerback -5.90366 -0.375167 -8.76786
upperback 2.97707 0.150338 7.37955
thorax 6.5339 -0.375355 13.1801
lowerneck -17.299 -5.3124 -11.3887
upperneck 30.9332 -3.70431 4.25497
head 13.7566 -1.77321 3.1725
rclavicle -1.15295e-014 1.74931e-014
rhumerus -21.2398 2.68137 -78.2387
rradius 38.3755
rwrist -12.2162
rhand -14.0819 14.9726
rfingers 7.12502
rthumb 12.0502 -14.6604
lclavicle -1.15295e-014 1.74931e-014
lhumerus -30.7895 -2.08339 98.9012
lradius 36.2296
lwrist -3.3317
lhand -9.61142 28.3735
lfingers 7.12502
lthumb 16.3578 57.7037
rfemur -20.0639 -2.38379 24.2584
rtibia 38.615
rfoot -23.369 -5.61954
rtoes 2.75058
lfemur -8.10043 11.8773 -14.9537
ltibia 38.0966
lfoot -15.038 -1.31644
ltoes -18.8522
138
root 9.66247 18.0139 8.50697 -175.603 7.07201 -178.994
lowerback -5.70972 -0.409537 -8.72447
upperback 2.97554 0.104494 7.62935
thorax 6.43838 -0.384755 13.4396
lowerneck -17.4872 -5.40713 -11.1771
upperneck 30.8493 -3.83906 4.00575
head 13.7618 -1.84887 3.00558
rclavicle -4.37326e-015 -2.22639e-014
rhumerus -21.0124 2.26802 -78.0076
rradius 37.6962
rwrist -11.7861
rhand -14.1693 14.0874
rfingers 7.12502
rthumb 11.9659 -15.5506
lclavicle -4.37326e-015 -2.22639e-014
lhumerus -30.5838 -2.14701 99.1312
lradius 35.529
lwrist -3.8964
lhand -10.1304 27.0125
lfingers 7.12502
lthumb 15.858 56.3831
rfemur -20.1281 -2.53375 24.7055
rtibia 38.7179
rfoot -23.3649 -5.62686
rtoes 2.35044
lfemur -7.52458 11.4536 -14.7785
ltibia 37.277
lfoot -16.1199 -0.561954
ltoes -16.5563
139
root 9.6695 18.0073 8.53533 -175.62 6.94106 -178.792
lowerback -5.5508 -0.393535 -8.7373
upperback 3.07581 0.131849 7.78802
thorax 6.45202 -0.37296 13.6401
lowerneck -17.8663 -5.49218 -11.0957
upperneck 30.6073 -4.03594 4.05866
head 13.7536 -1.93605 2.96372
rclavicle -4.17448e-015 8.26944e-014
rhumerus -20.5744 1.27991 -77.7512
rradius 36.8189
rwrist -11.1046
rhand -14.2755 13.6794
rfingers 7.12502
rthumb 11.8634 -15.9645
lclavicle -4.17448e-015 8.26944e-014
lhumerus -30.0775 -2.42175 99.3704
lradius 34.9486
lwrist -4.48679
lhand -8.12652 27.8295
lfingers 7.12502
lthumb 17.7871 57.036
rfemur -20.194 -2.80133 24.9741
rtibia 38.7771
rfoot -23.524 -5.5579
rtoes 1.19736
lfemur -6.9942 10.9195 -14.7989
ltibia 36.4875
lfoot -16.9894 -0.0340629
ltoes -13.1683
